<?xml version="1.0" encoding="UTF-8"?>
<svg version="1.1" xmlns="http://www.w3.org/2000/svg" width="300" height="300">
<path d="M0 0 C99 0 198 0 300 0 C300 99 300 198 300 300 C201 300 102 300 0 300 C0 201 0 102 0 0 Z " fill="#FEFEFE" transform="translate(0,0)"/>
<path d="M0 0 C1.32 0.33 2.64 0.66 4 1 C4 7.6 4 14.2 4 21 C13.9 21 23.8 21 34 21 C34 14.4 34 7.8 34 1 C35.32 0.67 36.64 0.34 38 0 C39.17426264 2.34852528 39.11508173 3.73774065 39.09765625 6.3515625 C39.09282227 7.62773438 39.09282227 7.62773438 39.08789062 8.9296875 C39.07532227 10.26386719 39.07532227 10.26386719 39.0625 11.625 C39.05798828 12.5221875 39.05347656 13.419375 39.04882812 14.34375 C39.03702591 16.56256648 39.02056155 18.78125018 39 21 C40.62796509 20.99214478 40.62796509 20.99214478 42.28881836 20.98413086 C46.30117982 20.96608164 50.31353767 20.95456829 54.32592773 20.94506836 C56.06519168 20.94002796 57.80445136 20.9331957 59.54370117 20.92456055 C62.03825937 20.91248208 64.53276173 20.90676892 67.02734375 20.90234375 C67.80963852 20.89718246 68.59193329 20.89202118 69.39793396 20.88670349 C71.26567114 20.88650774 73.13329204 20.93800306 75 21 C75.33 21.33 75.66 21.66 76 22 C75.6965231 27.26026623 74.85767385 30.34536162 71 34 C65.74894232 36.92847448 61.85619975 37.48001637 56 37 C53.76171875 35.98046875 53.76171875 35.98046875 52 35 C52.10393066 36.84537354 52.10393066 36.84537354 52.20996094 38.72802734 C52.90210972 51.65400901 53.215719 64.55588029 53.24023438 77.5 C53.25018793 80.68513841 53.28147417 83.86969262 53.3125 87.0546875 C53.31901052 89.09114209 53.32426858 91.12760116 53.328125 93.1640625 C53.3404718 94.11076813 53.3528186 95.05747375 53.36553955 96.03286743 C53.36253845 96.90583466 53.35953735 97.77880188 53.35644531 98.67822266 C53.36191376 99.82564438 53.36191376 99.82564438 53.36749268 100.99624634 C53 103 53 103 51.85174561 104.74584961 C49.20086095 106.54124095 47.20233469 106.38117808 44.015625 106.38818359 C42.78424805 106.39764008 41.55287109 106.40709656 40.28417969 106.4168396 C38.93944986 106.41146989 37.59472296 106.40531694 36.25 106.3984375 C34.8714177 106.40045847 33.49283645 106.4033701 32.11425781 106.40713501 C29.22580786 106.41155735 26.33763633 106.40513058 23.44921875 106.39111328 C19.74670246 106.37402099 16.04483854 106.38386272 12.34234619 106.40183067 C9.49588098 106.41267121 6.64957045 106.40922103 3.80310059 106.4014473 C2.43794681 106.39944601 1.07277898 106.40190208 -0.2923584 106.40888596 C-2.2001112 106.4165039 -4.10791324 106.40283406 -6.015625 106.38818359 C-7.64419434 106.38460342 -7.64419434 106.38460342 -9.30566406 106.38095093 C-12 106 -12 106 -13.85075378 104.71121216 C-15.89858489 101.66201919 -15.40292394 98.01927482 -15.36328125 94.46875 C-15.36511665 93.18464737 -15.36511665 93.18464737 -15.36698914 91.87460327 C-15.36517945 89.08274681 -15.33990303 86.29171386 -15.3125 83.5 C-15.30386099 81.59130938 -15.29539797 79.68261796 -15.28710938 77.77392578 C-15.18472429 63.11883314 -14.47782629 48.5856738 -13 34 C-13.60593994 34.32452148 -14.21187988 34.64904297 -14.83618164 34.98339844 C-17.50798604 36.23866116 -19.49538686 36.2663224 -22.4375 36.25 C-23.36433594 36.25515625 -24.29117188 36.2603125 -25.24609375 36.265625 C-29.49243511 35.85604881 -32.18972111 34.78777114 -35.25 31.8125 C-37.3266958 28.47495318 -37.77504164 25.89927823 -38 22 C-37 21 -37 21 -33.58178711 20.88647461 C-32.06363012 20.88663372 -30.54546771 20.89232774 -29.02734375 20.90234375 C-28.22970108 20.9037587 -27.43205841 20.90517365 -26.61024475 20.90663147 C-24.05262565 20.91224684 -21.49509282 20.92480188 -18.9375 20.9375 C-17.20768355 20.94251302 -15.47786574 20.94707627 -13.74804688 20.95117188 C-9.49866447 20.96222125 -5.24934688 20.97949614 -1 21 C-1.00523682 20.39937744 -1.01047363 19.79875488 -1.01586914 19.17993164 C-1.03658014 16.47413162 -1.04964125 13.76834823 -1.0625 11.0625 C-1.07087891 10.11697266 -1.07925781 9.17144531 -1.08789062 8.19726562 C-1.09111328 7.29814453 -1.09433594 6.39902344 -1.09765625 5.47265625 C-1.10289307 4.64000244 -1.10812988 3.80734863 -1.11352539 2.94946289 C-1 1 -1 1 0 0 Z " fill="#3A384C" transform="translate(131,60)"/>
<path d="M0 0 C17.82 0 35.64 0 54 0 C54.495 9.590625 54.495 9.590625 55 19.375 C55.15662109 22.37086182 55.15662109 22.37086182 55.31640625 25.42724609 C55.39863838 27.04263302 55.48068173 28.65802956 55.5625 30.2734375 C55.60568359 31.08594971 55.64886719 31.89846191 55.69335938 32.7355957 C55.98267162 38.51323021 56 44.1976492 56 50 C36.86 50 17.72 50 -2 50 C-1.40466546 33.33063292 -0.75739954 16.66278993 0 0 Z " fill="#FAFAFA" transform="translate(123,86)"/>
<path d="M0 0 C19.8 0 39.6 0 60 0 C60 5.94 60 11.88 60 18 C55.49885935 22.50114065 55.49885935 22.50114065 50.72827148 22.51757812 C49.67715683 22.53018677 48.62604218 22.54279541 47.54307556 22.55578613 C46.41382156 22.54768921 45.28456757 22.53959229 44.12109375 22.53125 C42.95747818 22.5350769 41.79386261 22.53890381 40.59498596 22.54284668 C38.13631322 22.54556772 35.67761162 22.53819327 33.21899414 22.52148438 C29.44807704 22.50006009 25.67906123 22.52129151 21.90820312 22.546875 C19.52082911 22.54423214 17.13345629 22.53910803 14.74609375 22.53125 C13.61481552 22.53934692 12.48353729 22.54744385 11.31797791 22.55578613 C10.27001541 22.54317749 9.22205292 22.53056885 8.14233398 22.51757812 C7.21952133 22.51439575 6.29670868 22.51121338 5.34593201 22.50793457 C3 22 3 22 0 18 C0 12.06 0 6.12 0 0 Z " fill="#97CFC2" transform="translate(120,140)"/>
<path d="M0 0 C17.82 0 35.64 0 54 0 C55.16071429 22.05357143 55.16071429 22.05357143 55 30 C48.50947192 33.31431221 42.9257223 34.25623113 35.875 32 C30.75869245 28.44082953 25.37584096 23.26771991 24 17 C23.36014297 10.64882656 23.9863144 8.02737121 27 2 C14.13 1.505 14.13 1.505 1 1 C0.67 1.99 0.34 2.98 0 4 C0 2.68 0 1.36 0 0 Z " fill="#9BD2C6" transform="translate(123,86)"/>
<path d="M0 0 C0.99 0 1.98 0 3 0 C3 0.99 3 1.98 3 3 C3.66386719 2.50886719 4.32773438 2.01773438 5.01171875 1.51171875 C8.69393676 -0.35105036 11.7946943 -0.33744682 15.8125 -0.1875 C16.85180664 -0.16719727 16.85180664 -0.16719727 17.91210938 -0.14648438 C19.60841265 -0.11138845 21.30431136 -0.05758943 23 0 C22.67 0.99 22.34 1.98 22 3 C19.36 3 16.72 3 14 3 C13.90912109 4.28583984 13.90912109 4.28583984 13.81640625 5.59765625 C13.38856464 11.43604873 12.940837 17.22057272 12 23 C10.35 23 8.7 23 7 23 C6.4355282 15.66186666 8.44672896 9.83911885 11 3 C10.2575 3.33 9.515 3.66 8.75 4 C6 5 6 5 2 5 C1.71125 5.78375 1.4225 6.5675 1.125 7.375 C0 10 0 10 -2 12 C-2.16677282 15.58343976 -2.16677282 15.58343976 -2 19 C-0.02 18.01 1.96 17.02 4 16 C3.6875 18.375 3.6875 18.375 3 21 C0 23 0 23 -5 23 C-5.66 19.7 -6.32 16.4 -7 13 C-7.66 13 -8.32 13 -9 13 C-9.66 16.3 -10.32 19.6 -11 23 C-12.65 23 -14.3 23 -16 23 C-16.43623812 16.31101546 -15.00931022 10.01862043 -12 4 C-14.31 4.66 -16.62 5.32 -19 6 C-17.25 2.125 -17.25 2.125 -15 1 C-12.3276379 0.86584528 -9.67749512 0.95681459 -7 1 C-7.66 3.97 -8.32 6.94 -9 10 C-6.07176325 9.34928072 -4.41562022 8.65065146 -2.77734375 6.0859375 C-1.78790585 4.07869072 -0.85994693 2.0657943 0 0 Z " fill="#484558" transform="translate(111,179)"/>
<path d="M0 0 C0.66 0.33 1.32 0.66 2 1 C2 1.66 2 2.32 2 3 C0.96939453 3.03867188 0.96939453 3.03867188 -0.08203125 3.078125 C-0.98308594 3.13484375 -1.88414062 3.1915625 -2.8125 3.25 C-3.70582031 3.29640625 -4.59914062 3.3428125 -5.51953125 3.390625 C-8.09538607 3.80639753 -8.09538607 3.80639753 -9.8125 5.71875 C-11.23266609 8.44696381 -11.30814735 10.19360039 -11.1875 13.25 C-11.16042969 14.14203125 -11.13335937 15.0340625 -11.10546875 15.953125 C-11.07066406 16.62859375 -11.03585938 17.3040625 -11 18 C-9.741875 18.04125 -8.48375 18.0825 -7.1875 18.125 C-6.47980469 18.14820313 -5.77210938 18.17140625 -5.04296875 18.1953125 C-2.68640281 18.13254462 -2.68640281 18.13254462 0 16 C-1.22007944 13.3094472 -1.22007944 13.3094472 -3 11 C-3.1875 8.5625 -3.1875 8.5625 -3 6 C-2.34 5.34 -1.68 4.68 -1 4 C1.625 4.375 1.625 4.375 4 5 C4.33 6.65 4.66 8.3 5 10 C5.66 10 6.32 10 7 10 C6.33333333 11.33333333 5.66666667 12.66666667 5 14 C4.566875 15.010625 4.13375 16.02125 3.6875 17.0625 C1.71893377 20.48926343 0.67020109 21.56383435 -3 23 C-6.14140325 23.56545258 -8.87140654 23.68455662 -12 23 C-15.15016301 20.42843836 -16.56647587 18.95085859 -17.4375 15.03125 C-17.74918805 9.96631913 -16.28817694 6.92754468 -13 3 C-9.4431238 -0.95208466 -4.97413247 -0.49933376 0 0 Z " fill="#403D51" transform="translate(202,179)"/>
<path d="M0 0 C0.33 0 0.66 0 1 0 C1.31732638 7.77449624 0.11855299 15.32992235 -1 23 C-2.65 22.67 -4.3 22.34 -6 22 C-5.505 17.545 -5.505 17.545 -5 13 C-7.31 13 -9.62 13 -12 13 C-12.33 16.3 -12.66 19.6 -13 23 C-14.32 23 -15.64 23 -17 23 C-17 20.03 -17 17.06 -17 14 C-17.66 14 -18.32 14 -19 14 C-18.67 13.01 -18.34 12.02 -18 11 C-17.01 11 -16.02 11 -15 11 C-14.7834375 9.824375 -14.7834375 9.824375 -14.5625 8.625 C-14 6 -14 6 -13 4 C-15.31 4.66 -17.62 5.32 -20 6 C-20 5.01 -20 4.02 -20 3 C-16.09971775 0.39981184 -12.52565431 0.84914486 -8 1 C-8.66 3.97 -9.32 6.94 -10 10 C-8.02 10 -6.04 10 -4 10 C-3.896875 9.0925 -3.79375 8.185 -3.6875 7.25 C-2.99513303 3.97699249 -2.23900582 2.42558964 0 0 Z " fill="#424053" transform="translate(181,179)"/>
<path d="M0 0 C0.33 0 0.66 0 1 0 C1.31732638 7.77449624 0.11855299 15.32992235 -1 23 C-2.65 22.67 -4.3 22.34 -6 22 C-5.505 17.545 -5.505 17.545 -5 13 C-7.31 13 -9.62 13 -12 13 C-12.33 16.3 -12.66 19.6 -13 23 C-14.32 23 -15.64 23 -17 23 C-17 20.03 -17 17.06 -17 14 C-17.66 14 -18.32 14 -19 14 C-18.67 13.01 -18.34 12.02 -18 11 C-17.01 11 -16.02 11 -15 11 C-14.7834375 9.824375 -14.7834375 9.824375 -14.5625 8.625 C-14 6 -14 6 -13 4 C-15.31 4.66 -17.62 5.32 -20 6 C-20 5.01 -20 4.02 -20 3 C-16.09971775 0.39981184 -12.52565431 0.84914486 -8 1 C-8.66 3.97 -9.32 6.94 -10 10 C-8.02 10 -6.04 10 -4 10 C-3.896875 9.0925 -3.79375 8.185 -3.6875 7.25 C-2.99513303 3.97699249 -2.23900582 2.42558964 0 0 Z " fill="#424053" transform="translate(90,179)"/>
<path d="M0 0 C3.4375 0.1875 3.4375 0.1875 4.4375 1.1875 C4.625 4.125 4.625 4.125 4.4375 7.1875 C3.7775 7.8475 3.1175 8.5075 2.4375 9.1875 C2.953125 9.703125 3.46875 10.21875 4 10.75 C5.4375 13.1875 5.4375 13.1875 5.4375 16.75 C4.4375 20.1875 4.4375 20.1875 2.3125 22.125 C-1.22432341 23.43208691 -3.81914613 23.60342821 -7.5625 23.1875 C-9.5625 22.125 -9.5625 22.125 -10.5625 20.1875 C-10.25 16.5 -10.25 16.5 -9.5625 13.1875 C-8.2425 12.8575 -6.9225 12.5275 -5.5625 12.1875 C-5.5625 14.4975 -5.5625 16.8075 -5.5625 19.1875 C-3.5825 18.8575 -1.6025 18.5275 0.4375 18.1875 C-0.56469361 15.18091916 -1.28064977 13.43619138 -3.6875 11.3125 C-5.5625 9.1875 -5.5625 9.1875 -5.9375 5.5625 C-5.41386561 0.84979053 -4.74427907 0.2496989 0 0 Z " fill="#504E60" transform="translate(153.5625,178.8125)"/>
<path d="M0 0 C-0.97646484 0.66515625 -0.97646484 0.66515625 -1.97265625 1.34375 C-4.25236795 2.83783649 -4.25236795 2.83783649 -4.4375 5.5 C-3.93915901 8.34766278 -3.22984785 9.23470379 -1 11 C-2.75 14.875 -2.75 14.875 -5 16 C-10.17431193 16.44036697 -10.17431193 16.44036697 -12.875 15 C-14.69952369 11.75640232 -14.58975229 8.56626679 -14 5 C-11.05968237 -1.41523846 -6.20862766 -0.53318367 0 0 Z " fill="#F5F5F6" transform="translate(204,182)"/>
<path d="M0 0 C1.87092694 2.60302879 2.05387785 4.89265461 1.890625 8.05859375 C1.4375 10 1.4375 10 -0.75 12.5 C-3.70241985 14.07462392 -5.27826929 14.37534065 -8.5625 14 C-8.5625 13.34 -8.5625 12.68 -8.5625 12 C-7.7375 11.566875 -6.9125 11.13375 -6.0625 10.6875 C-4.825 9.8521875 -4.825 9.8521875 -3.5625 9 C-3.06190084 6.41482413 -3.06190084 6.41482413 -3.5625 4 C-4.77647319 2.55817493 -4.77647319 2.55817493 -8.375 2.875 C-11.25167975 2.90598757 -13.81022999 3.08257666 -16.5625 4 C-15.5625 1 -15.5625 1 -13.78125 -0.16796875 C-9.28068932 -1.85567901 -4.45815499 -1.7397678 0 0 Z " fill="#423F53" transform="translate(227.5625,180)"/>
<path d="M0 0 C2.5625 0.1875 2.5625 0.1875 4.5625 2.1875 C4.828125 4.0625 4.828125 4.0625 4.8125 6.1875 C4.81765625 6.88875 4.8228125 7.59 4.828125 8.3125 C4.5625 10.1875 4.5625 10.1875 2.5625 12.1875 C0 12.375 0 12.375 -2.4375 12.1875 C-3.4375 11.1875 -3.4375 11.1875 -3.5703125 8.9375 C-3.56773437 8.03 -3.56515625 7.1225 -3.5625 6.1875 C-3.56507813 5.28 -3.56765625 4.3725 -3.5703125 3.4375 C-3.38424141 0.28523683 -3.15680703 0.24283131 0 0 Z " fill="#38384C" transform="translate(166.4375,145.8125)"/>
<path d="M0 0 C3.125 0.375 3.125 0.375 6 1 C6.02688151 2.64574566 6.04634123 4.29161413 6.0625 5.9375 C6.07410156 6.85402344 6.08570313 7.77054688 6.09765625 8.71484375 C6 11 6 11 5 12 C2.5625 12.1875 2.5625 12.1875 0 12 C-2 10 -2 10 -2.265625 8.125 C-2.26046875 7.42375 -2.2553125 6.7225 -2.25 6 C-2.25515625 5.29875 -2.2603125 4.5975 -2.265625 3.875 C-2 2 -2 2 0 0 Z " fill="#38374A" transform="translate(131,146)"/>
<path d="M0 0 C2.5 0.25 2.5 0.25 4.5 2.25 C4.75 5.25 4.75 5.25 4.5 8.25 C2.5 10.25 2.5 10.25 0.0625 10.5625 C-2.5 10.25 -2.5 10.25 -4.375 9.0625 C-5.5 7.25 -5.5 7.25 -5.3125 4.6875 C-4.22827241 1.43481722 -3.47807945 0.34780795 0 0 Z " fill="#B2E0D5" transform="translate(169.5,224.75)"/>
<path d="M0 0 C0.33 0 0.66 0 1 0 C1.09507063 6.43311296 1.15316726 12.65758005 0 19 C-1.65 19 -3.3 19 -5 19 C-5.50724362 12.15221113 -3.99098933 7.16215874 -1 1 C-0.67 0.67 -0.34 0.34 0 0 Z " fill="#4C4A5C" transform="translate(123,183)"/>
<path d="M0 0 C2.625 0.375 2.625 0.375 5 1 C5.33 2.65 5.66 4.3 6 6 C6.66 6 7.32 6 8 6 C6.79618552 8.49361571 5.54571278 10.68143083 4 13 C-2 7 -2 7 -2.1875 4.5625 C-2 2 -2 2 0 0 Z " fill="#4D4A5D" transform="translate(201,183)"/>
<path d="M0 0 C0.33 0 0.66 0 1 0 C0.67 5.94 0.34 11.88 0 18 C-1.65 18.33 -3.3 18.66 -5 19 C-5.33860515 12.79223894 -4.57960021 7.70351973 -2 2 C-1.34 1.34 -0.68 0.68 0 0 Z " fill="#4A475A" transform="translate(217,183)"/>
<path d="M0 0 C6.0546875 -0.1953125 6.0546875 -0.1953125 8 0 C10 2 10 2 10.5 4.375 C10 7 10 7 7.125 9.3125 C4 11 4 11 2 11 C2.03480469 10.06027344 2.03480469 10.06027344 2.0703125 9.1015625 C2.08835938 8.28429687 2.10640625 7.46703125 2.125 6.625 C2.14820313 5.81289062 2.17140625 5.00078125 2.1953125 4.1640625 C2.21370051 1.78657757 2.21370051 1.78657757 0 0 Z " fill="#E6E6E8" transform="translate(215,182)"/>
<path d="M0 0 C0.69738281 0.01804688 1.39476562 0.03609375 2.11328125 0.0546875 C3.82611539 0.10161446 5.53823824 0.17335395 7.25 0.25 C6.92 1.24 6.59 2.23 6.25 3.25 C3.61 3.25 0.97 3.25 -1.75 3.25 C-1.75 4.9 -1.75 6.55 -1.75 8.25 C-3.25 6.875 -3.25 6.875 -4.75 5.25 C-4.75 4.59 -4.75 3.93 -4.75 3.25 C-7.06 3.58 -9.37 3.91 -11.75 4.25 C-8.36399708 -0.18322032 -5.23938601 -0.25751236 0 0 Z " fill="#3E3B4F" transform="translate(126.75,178.75)"/>
<path d="M0 0 C1.65 0 3.3 0 5 0 C6.0625 1.8125 6.0625 1.8125 7 4 C6.67 4.99 6.34 5.98 6 7 C6.33 7.99 6.66 8.98 7 10 C6.01 9.67 5.02 9.34 4 9 C3.67 8.34 3.34 7.68 3 7 C2.67 7.99 2.34 8.98 2 10 C1.34 10 0.68 10 0 10 C0 6.7 0 3.4 0 0 Z " fill="#CFEBE4" transform="translate(129,225)"/>
<path d="M0 0 C1.65 0 3.3 0 5 0 C5.66666667 3.33333333 6.33333333 6.66666667 7 10 C6.01 9.67 5.02 9.34 4 9 C3.67 8.34 3.34 7.68 3 7 C2.67 7.99 2.34 8.98 2 10 C1.34 10 0.68 10 0 10 C0 6.7 0 3.4 0 0 Z " fill="#BFE5DC" transform="translate(156,225)"/>
<path d="M0 0 C2.5 0.125 2.5 0.125 3.5 1.125 C3.625 3.625 3.625 3.625 3.5 6.125 C2.5 7.125 2.5 7.125 -0.5625 7.1875 C-2.0165625 7.1565625 -2.0165625 7.1565625 -3.5 7.125 C-3.54254356 5.12545254 -3.54080783 3.12458364 -3.5 1.125 C-2.5 0.125 -2.5 0.125 0 0 Z " fill="#38384B" transform="translate(164.5,100.875)"/>
<path d="M0 0 C2.5 0.125 2.5 0.125 3.5 1.125 C3.54080783 3.12458364 3.54254356 5.12545254 3.5 7.125 C1.50045254 7.16754356 -0.50041636 7.16580783 -2.5 7.125 C-3.5 6.125 -3.5 6.125 -3.625 3.625 C-3.45661291 0.25725827 -3.36774173 0.16838709 0 0 Z " fill="#3D3A4E" transform="translate(135.5,100.875)"/>
<path d="M0 0 C11.88 0 23.76 0 36 0 C36 0.33 36 0.66 36 1 C34.98574951 1.02505615 33.97149902 1.0501123 32.92651367 1.07592773 C29.16368973 1.17009645 25.40104631 1.27029405 21.63842773 1.37231445 C20.00988996 1.41562749 18.38130784 1.45730518 16.75268555 1.49731445 C14.41181065 1.55510503 12.07115824 1.61877398 9.73046875 1.68359375 C8.63813179 1.70866249 8.63813179 1.70866249 7.52372742 1.73423767 C4.43833061 1.82467238 1.94828022 2.01723993 -1 3 C-0.67 2.01 -0.34 1.02 0 0 Z " fill="#4B485B" transform="translate(94,81)"/>
<path d="M0 0 C2.0625 0.4375 2.0625 0.4375 4 1 C4 2.98 4 4.96 4 7 C2.125 7.625 2.125 7.625 0 8 C-0.66 7.34 -1.32 6.68 -2 6 C-1.44444444 1.44444444 -1.44444444 1.44444444 0 0 Z " fill="#FAFDFC" transform="translate(168,226)"/>
<path d="M0 0 C1.98 0 3.96 0 6 0 C4.68 0.33 3.36 0.66 2 1 C2 2.32 2 3.64 2 5 C2.99 5.33 3.98 5.66 5 6 C4.01 6 3.02 6 2 6 C2 6.99 2 7.98 2 9 C3.32 9.33 4.64 9.66 6 10 C4.02 10 2.04 10 0 10 C0 6.7 0 3.4 0 0 Z " fill="#ACDDD1" transform="translate(138,225)"/>
<path d="M0 0 C1.66611905 -0.042721 3.33382885 -0.04063832 5 0 C6 1 6 1 6.0625 4.0625 C6.041875 5.031875 6.02125 6.00125 6 7 C5.34 7 4.68 7 4 7 C4 5.68 4 4.36 4 3 C2.02 3.33 0.04 3.66 -2 4 C-1.34 2.68 -0.68 1.36 0 0 Z " fill="#423F53" transform="translate(152,179)"/>
<path d="M0 0 C1.65 0 3.3 0 5 0 C4.01 0.33 3.02 0.66 2 1 C2 2.32 2 3.64 2 5 C2.66 5.33 3.32 5.66 4 6 C3.34 6 2.68 6 2 6 C2 7.32 2 8.64 2 10 C1.34 10 0.68 10 0 10 C0 6.7 0 3.4 0 0 Z " fill="#B0DFD3" transform="translate(129,225)"/>
<path d="M0 0 C5.75 -0.125 5.75 -0.125 8 1 C8 1.66 8 2.32 8 3 C5.03 3 2.06 3 -1 3 C-0.67 2.01 -0.34 1.02 0 0 Z " fill="#464457" transform="translate(196,179)"/>
<path d="M0 0 C0 0.33 0 0.66 0 1 C-3.3 1.66 -6.6 2.32 -10 3 C-9 0 -9 0 -7.25 -1.3125 C-4.22513532 -2.23676421 -2.76271632 -1.38135816 0 0 Z " fill="#5A5769" transform="translate(221,181)"/>
</svg>
